<?xml version="1.0" ?><svg height="512pt" viewBox="-26 0 512 512" width="512pt" xmlns="http://www.w3.org/2000/svg"><path d="m329.996094 149.296875h40v39.996094h-40zm0 0" fill="#bf9a94"/><path d="m369 349.285156h.996094v40.003906h-.996094zm0 0" fill="#bf9a94"/><path d="m329.996094 249.289062h40v40.003907h-40zm0 0" fill="#bf9a94"/><path d="m370 70.003906h-80c0-12.585937-3.882812-24.257812-10.5-33.902344-6.617188 9.644532-10.496094 21.320313-10.496094 33.902344h-80.003906c0 22.089844-17.90625 39.996094-40 39.996094v392h21v-30h20.003906v-122.714844h79.996094v122.714844h20v30h120v-392c-22.09375 0-40-17.90625-40-39.996094zm-120 219.289063h-40v-40.003907h40zm0-100h-40v-39.996094h40zm79.996094-39.996094h40v39.996094h-40zm0 99.992187h40v40.003907h-40zm0 99.996094h40v40.003906h-40zm0 0" fill="#bf9a94"/><path d="m329.996094 149.296875h40v39.996094h-40zm0 0" fill="#96c8eb" fill-rule="evenodd"/><path d="m329.996094 249.289062h40v40.003907h-40zm0 0" fill="#96c8eb" fill-rule="evenodd"/><path d="m329.996094 349.285156h40v40.003906h-40zm0 0" fill="#96c8eb" fill-rule="evenodd"/><path d="m110 149.296875h20v39.996094h-20zm0 0" fill="#96c8eb" fill-rule="evenodd"/><path d="m230.003906 149.296875h-.003906v39.996094h20v-39.996094zm0 0" fill="#96c8eb" fill-rule="evenodd"/><path d="m230 249.289062h20v40.003907h-20zm0 0" fill="#96c8eb" fill-rule="evenodd"/><path d="m110 249.289062h20v40.003907h-20zm0 0" fill="#96c8eb" fill-rule="evenodd"/><path d="m110 349.285156h20v40.003906h-20zm0 0" fill="#96c8eb" fill-rule="evenodd"/><path d="m231.003906 349.285156v122.714844h38.996094v-122.714844zm0 0" fill="#986e62" fill-rule="evenodd"/><path d="m270 472h-100v30h120v-30zm0 0" fill="#ffdaae" fill-rule="evenodd"/><g fill="#000001"><path d="m130 139.296875h-40c-5.523438 0-10 4.476563-10 10v39.996094c0 5.523437 4.476562 10 10 10h40c5.523438 0 10-4.476563 10-10v-39.996094c0-5.523437-4.476562-10-10-10zm-10 39.996094h-20v-19.996094h20zm0 0"/><path d="m130 239.289062h-40c-5.523438 0-10 4.480469-10 10v40.003907c0 5.523437 4.476562 10 10 10h40c5.523438 0 10-4.476563 10-10v-40.003907c0-5.519531-4.476562-10-10-10zm-10 40.003907h-20v-20.003907h20zm0 0"/><path d="m130 339.285156h-40c-5.523438 0-10 4.480469-10 10v40.003906c0 5.519532 4.476562 10 10 10h40c5.523438 0 10-4.480468 10-10v-40.003906c0-5.519531-4.476562-10-10-10zm-10 40.003906h-20v-20.003906h20zm0 0"/><path d="m209.996094 199.292969h40c5.523437 0 10-4.476563 10-10v-39.996094c0-5.523437-4.476563-10-10-10h-9.992188v-40.328125c0-5.523438-4.480468-10-10-10-5.527344 0-10 4.476562-10 10v40.328125h-10.007812c-5.519532 0-10 4.476563-10 10v39.996094c0 5.523437 4.480468 10 10 10zm10-39.996094h20v19.996094h-20zm0 0"/><path d="m209.996094 299.292969h40c5.523437 0 10-4.476563 10-10v-40.003907c0-5.519531-4.476563-10-10-10h-40c-5.519532 0-10 4.480469-10 10v40.003907c0 5.523437 4.480468 10 10 10zm10-40.003907h20v20.003907h-20zm0 0"/><path d="m329.992188 199.292969h40c5.523437 0 10-4.476563 10-10v-39.996094c0-5.523437-4.476563-10-10-10h-40c-5.519532 0-10 4.476563-10 10v39.996094c0 5.523437 4.480468 10 10 10zm10-39.996094h20v19.996094h-20zm0 0"/><path d="m329.992188 299.292969h40c5.523437 0 10-4.476563 10-10v-40.003907c0-5.519531-4.476563-10-10-10h-40c-5.519532 0-10 4.480469-10 10v40.003907c0 5.523437 4.480468 10 10 10zm10-40.003907h20v20.003907h-20zm0 0"/><path d="m329.992188 399.289062h40c5.523437 0 10-4.480468 10-10v-40.003906c0-5.519531-4.476563-10-10-10h-40c-5.519532 0-10 4.480469-10 10v40.003906c0 5.519532 4.480468 10 10 10zm10-40.003906h20v20.003906h-20zm0 0"/><path d="m110.003906 452.007812h-.238281c-5.523437 0-10 4.476563-10 10 0 5.519532 4.476563 10 10 10h.238281c5.519532 0 10-4.480468 10-10 0-5.523437-4.480468-10-10-10zm0 0"/><path d="m350.234375 452.003906h-.238281c-5.519532 0-10 4.476563-10 10 0 5.519532 4.480468 10 10 10h.238281c5.523437 0 10-4.480468 10-10 0-5.523437-4.476563-10-10-10zm0 0"/><path d="m230.003906 80.238281c5.519532 0 10-4.476562 10-10v-.234375c0-5.523437-4.480468-10-10-10-5.527344 0-10 4.476563-10 10v.234375c0 5.523438 4.476563 10 10 10zm0 0"/><path d="m10.234375 492h-.234375c-5.523438 0-10 4.476562-10 10s4.476562 10 10 10h.234375c5.523437 0 10-4.476562 10-10s-4.472656-10-10-10zm0 0"/><path d="m450 492h-.238281c-5.523438 0-10 4.476562-10 10s4.476562 10 10 10h.238281c5.523438 0 10-4.476562 10-10s-4.476562-10-10-10zm0 0"/><path d="m421.03125 492h-1.03125v-382c0-5.523438-4.476562-10-10-10-16.542969 0-30-13.457031-30-29.996094 0-5.523437-4.476562-10-10-10h-70.714844c-4.863281-33.882812-34.082031-60.003906-69.28125-60.003906-35.203125 0-64.421875 26.121094-69.289062 60.003906h-70.714844c-5.523438 0-10 4.476563-10 10 0 16.539063-13.457031 29.996094-30 29.996094-5.519531 0-10 4.476562-10 10v382h-1.03125c-5.523438 0-10 4.476562-10 10s4.476562 10 10 10h382.0625c5.523438 0 10-4.476562 10-10s-4.472656-10-10-10zm-361.03125-19.996094h21.035156c5.523438 0 10-4.480468 10-10 0-5.523437-4.476562-10-10-10h-21.035156v-333.007812c19.5625-3.988282 35.007812-19.433594 38.996094-38.992188h71.007812c5.519532 0 10-4.480468 10-10 0-27.574218 22.429688-50.003906 50-50.003906 27.566406 0 49.996094 22.429688 49.996094 50.003906 0 5.519532 4.476562 10 10 10h71.003906c3.988282 19.558594 19.433594 35.003906 38.996094 38.992188v333.007812h-21.035156c-5.523438 0-10 4.476563-10 10 0 5.519532 4.476562 10 10 10h21.035156v19.996094h-100v-20c0-5.523438-4.476562-10-10-10h-10v-112.714844c0-5.519531-4.476562-10-10-10h-79.996094c-5.523437 0-10 4.480469-10 10v112.714844h-10.003906c-5.523438 0-10 4.476562-10 10v20h-100zm140.003906-10.003906v-41.355469h9.992188c5.523437 0 10-4.480469 10-10 0-5.523437-4.476563-10-10-10h-9.992188v-41.359375h59.996094v102.714844zm-20.003906 30v-10h100v10zm0 0"/></g></svg>